<svg class="w-4 h-4" width="15px" height="20px" viewBox="0 0 15 20" version="1.1" xmlns="http://www.w3.org/2000/svg" fill="currentColor" data-di-rand="1686729404757"><path d="M11.9,17.22 L11.9,5.82 C11.9,5.76 11.93,5.72 12,5.72 L14.57,5.72 C14.62,5.72 14.67,5.76 14.67,5.82 L14.67,17.22 C14.67,18.7553516 13.4253516,20 11.89,20 L3.55,20 C2.01,20 0.77,18.76 0.77,17.22 L11.87,17.22 L11.9,17.22 Z M11.9,0.56 C13.42,0.56 14.67,1.8 14.67,3.33 L3.57,3.33 L3.57,14.73 C3.57,14.8 3.51,14.83 3.45,14.83 L0.88,14.83 C0.82,14.83 0.78,14.8 0.78,14.73 L0.78,3.33 C0.78,1.8 2.02,0.56 3.56,0.56 L11.89,0.56 L11.9,0.56 Z"></path></svg>
