<svg xmlns="http://www.w3.org/2000/svg" viewBox="0 0 40 40">
    <path d="M35 33.6l0.3-1.5c-8.3 1.7-14.8-1-17.1-1.7 0.8-1.5 1.6-3.2 2.2-5.4l1.6-5.6 0.5-2c0.8-4.3 1.7-7.2 2.5-9 0.7-1.4 1.5-2 2.3-2.1 0.6 0.1 1.1 0.2 1.3 0.4 0.8 0.9 0.9 2.4 0.2 4.5 -0.6 1.5-1.4 2.8-2.6 3.9 -1.1 1.2-2.3 1.9-3.7 2.3l-0.5 2c3.5-0.7 6.3-2.8 8.1-6.3 1.1-2.8 1.4-5 0.6-6.7 -0.1-0.4-0.6-0.9-1.2-1.6 -0.9-0.7-2-0.9-3.2-0.8 -1.2 0.2-2.2 0.6-3.2 1.3 -1.7 1.2-3.1 2.9-4.1 5.5 -0.3 0.9-0.6 2.1-1 3.6l-0.8 3.5c-0.6 0.1-1.7-0.1-3.7-0.6 -0.3 0.6-0.5 1.2-0.5 1.5 1.6 0.6 2.9 0.9 3.8 1.1 -0.5 2.1-1.2 4.7-2.2 7.7l-0.3 0.9c-0.1 0.3-0.3 0.6-0.5 0.7 -1.7-0.4-3-0.7-3.9-0.8 -0.7 0-1.5 0-2.1 0.1 -0.6 0.2-1.2 0.4-1.7 0.7 -0.7 0.6-1.2 1.5-1.1 2.5 0.1 1.3 0.7 2.2 1.8 2.8l0.9-1.7c-0.5-0.3-0.7-0.6-0.7-1 0.1-0.4 0.2-0.7 0.6-0.9 0 0 0.1-0.1 0.2-0.1 0.6-0.3 1.3-0.3 2.2-0.2l2.6 0.9c-0.6 0.6-1.4 1.2-2.2 1.5 -0.9 0.3-1.7 0.3-2.6-0.1l-0.9 1.7c0.4 0.2 0.6 0.3 0.9 0.4 1.3 0.5 2.7 0.5 4.1 0.2 1.7-0.3 3.2-1 4.6-2.3 2.9 1.2 4.9 2 6.2 2.4 3.6 1.3 10.2-1 12.3-1.5Z"></path>
</svg>
